<?xml version="1.0" encoding="utf-8"?>
<!-- Generator: Adobe Illustrator 18.1.0, SVG Export Plug-In . SVG Version: 6.00 Build 0)  -->
<svg version="1.1" xmlns="http://www.w3.org/2000/svg" xmlns:xlink="http://www.w3.org/1999/xlink" x="0px" y="0px"
	 viewBox="0 0 753 84.4" enable-background="new 0 0 753 84.4" xml:space="preserve">
<g id="JU_Huvudvers">
	<g>
		<g>
			<path d="M109.5,65.8c-4.4,0-7.2-2.2-9.1-5.2l2.4-2.1c1.8,2.7,3.7,4.2,6.7,4.2c3.3,0,5.8-2.4,5.8-7.1V35.9h3.4v19.7
				C118.7,62.4,114.8,65.8,109.5,65.8z"/>
			<path d="M146.2,65.9c-9,0-15-7-15-15.2s6.1-15.3,15.1-15.3c9,0,15,7,15,15.2C161.3,58.7,155.2,65.9,146.2,65.9z M146.2,38.4
				c-6.7,0-11.5,5.4-11.5,12.1s4.9,12.2,11.6,12.2s11.5-5.4,11.5-12.1S153,38.4,146.2,38.4z M140.7,33.2v-4h3.8v4H140.7z
				 M148.1,33.2v-4h3.8v4H148.1z"/>
			<path d="M195.4,35.9h3.2v29.5H196l-19-24.2v24.2h-3.2V35.9h3.1l18.6,23.6V35.9z"/>
			<path d="M238.7,65.3h-4.2l-11.3-14.3l-6.3,6.4v7.9h-3.3V35.9h3.3v17.6l16.9-17.6h4.3l-12.6,12.9L238.7,65.3z"/>
			<path d="M260.9,65.9c-9,0-15-7-15-15.2S252,35.3,261,35.3c9,0,15,7,15,15.2C276,58.7,269.9,65.9,260.9,65.9z M260.9,38.4
				c-6.7,0-11.5,5.4-11.5,12.1s4.9,12.2,11.6,12.2s11.5-5.4,11.5-12.1S267.6,38.4,260.9,38.4z M255.3,33.2v-4h3.8v4H255.3z
				 M262.8,33.2v-4h3.8v4H262.8z"/>
			<path d="M299.4,54.9h-7.2v10.4h-3.3V35.9h11c6.7,0,11,3.5,11,9.4C311,51.7,305.7,54.9,299.4,54.9z M299.7,38.9h-7.5v13h7.3
				c4.9,0,8.1-2.6,8.1-6.5C307.6,41.1,304.5,38.9,299.7,38.9z"/>
			<path d="M326.7,35.9v29.5h-3.3V35.9H326.7z"/>
			<path d="M363.5,35.9h3.2v29.5h-2.7l-19-24.2v24.2h-3.2V35.9h3.1l18.6,23.6V35.9z"/>
			<path d="M395.2,65.9c-9.3,0-15-6.7-15-15.2c0-8.1,5.9-15.3,14.8-15.3c5,0,8,1.4,11,3.9l-2.1,2.5c-2.3-2-4.8-3.4-9-3.4
				c-6.5,0-11.2,5.5-11.2,12.1c0,7.1,4.5,12.3,11.7,12.3c3.4,0,6.5-1.3,8.5-2.9v-7.3h-9v-3h12.2v11.8
				C404.3,63.8,400.2,65.9,395.2,65.9z"/>
			<path d="M460.8,52.7c0,8.6-4.9,13.1-12.3,13.1c-7.3,0-12.3-4.5-12.3-12.8V35.9h3.3v16.9c0,6.4,3.4,9.9,9,9.9
				c5.4,0,8.9-3.3,8.9-9.7V35.9h3.3V52.7z"/>
			<path d="M496.6,35.9h3.2v29.5h-2.7l-19-24.2v24.2h-3.2V35.9h3.1l18.6,23.6V35.9z"/>
			<path d="M518.3,35.9v29.5H515V35.9H518.3z"/>
			<path d="M555.1,35.9h3.6L546,65.6H543l-12.7-29.7h3.7l10.5,25.4L555.1,35.9z"/>
			<path d="M591.3,38.9h-18V49h16.1v3h-16.1v10.3h18.2v3H570V35.9h21.3V38.9z"/>
			<path d="M625,65.3l-8.6-11.5H608v11.5h-3.3V35.9h12.7c6.5,0,10.7,3.5,10.7,8.8c0,4.9-3.4,7.8-8,8.6l9.1,12.1H625z M617.1,38.9
				H608v12h9.1c4.4,0,7.6-2.3,7.6-6.1C624.7,41.1,621.9,38.9,617.1,38.9z"/>
			<path d="M651.7,49c6.6,1.4,9.6,3.8,9.6,8.4c0,5.1-4.2,8.4-10.1,8.4c-4.7,0-8.5-1.6-12.1-4.7l2.1-2.4c3.1,2.8,6,4.2,10.1,4.2
				c4,0,6.6-2.1,6.6-5.1c0-2.8-1.5-4.3-7.7-5.6c-6.8-1.5-9.9-3.7-9.9-8.6c0-4.7,4.1-8.1,9.7-8.1c4.3,0,7.4,1.2,10.4,3.6l-1.9,2.6
				c-2.7-2.2-5.5-3.2-8.5-3.2c-3.8,0-6.3,2.1-6.3,4.8C643.7,46,645.2,47.6,651.7,49z"/>
			<path d="M678,35.9v29.5h-3.3V35.9H678z"/>
			<path d="M702.9,65.3h-3.4V38.9h-9.9v-3.1h23.2v3.1h-9.9V65.3z"/>
			<path d="M736.9,65.3h-3.4V53.7l-12.3-17.8h4l9.9,14.7l10-14.7h3.9l-12.3,17.8V65.3z"/>
		</g>
		<g>
			<path d="M29.8,84.4l0-44.2c0-3.5-2.9-6.4-6.4-6.4L0,33.8l0,23c0,15.2,12.4,27.6,27.6,27.6L29.8,84.4z"/>
			<path d="M64.3,26.4c0-3.5-2.9-6.4-6.4-6.4l-23.5,0v64.4l2.2,0c15.2,0,27.6-12.4,27.6-27.6L64.3,26.4z"/>
			<path d="M64.3,9c0,3.5-2.9,6.4-6.4,6.4l-23.5,0l0-9c0-3.5,2.9-6.4,6.4-6.4l24,0c0,0,0.1,0,0.1,0.1c0,0,0,0,0,0.1l0,0
				c-0.3,0.2-0.5,0.5-0.5,0.8L64.3,9z"/>
		</g>
	</g>
</g>
<g id="Lager_6">
</g>
</svg>
