<?xml version="1.0" standalone="no"?>
<!DOCTYPE svg PUBLIC "-//W3C//DTD SVG 20010904//EN"
 "http://www.w3.org/TR/2001/REC-SVG-20010904/DTD/svg10.dtd">
<svg version="1.0" xmlns="http://www.w3.org/2000/svg"
 width="220.000000pt" height="220.000000pt" viewBox="0 0 220.000000 220.000000"
 preserveAspectRatio="xMidYMid meet">

<g transform="translate(0.000000,220.000000) scale(0.100000,-0.100000)"
fill="#333" stroke="none">
<path d="M390 1382 c-33 -32 -44 -38 -73 -34 -22 2 -45 -2 -61 -14 -50 -32
-56 -58 -56 -244 l0 -170 34 -37 c29 -32 40 -37 77 -38 36 0 50 -6 76 -32 43
-45 97 -46 142 -4 25 23 31 38 32 73 1 23 2 57 3 73 l1 30 170 0 170 0 5 -70
c6 -75 20 -107 57 -124 46 -21 83 -13 120 25 26 28 39 35 57 30 37 -9 83 12
106 49 18 29 20 49 20 201 0 150 -2 173 -20 201 -24 41 -54 56 -97 51 -28 -3
-38 0 -50 19 -19 29 -63 53 -95 53 -13 0 -39 -13 -58 -29 -33 -27 -35 -33 -40
-102 l-5 -74 -170 0 -170 0 -5 73 c-5 68 -8 76 -38 103 -46 42 -84 39 -132 -9z
m94 -38 c14 -13 16 -50 16 -248 0 -167 -3 -235 -12 -244 -19 -19 -45 -14 -62
10 -13 19 -16 59 -16 240 0 205 1 219 20 238 24 24 34 25 54 4z m560 -6 c24
-34 23 -453 -1 -480 -21 -24 -50 -23 -63 1 -6 12 -10 109 -10 245 0 191 2 227
16 240 21 22 40 20 58 -6z m-706 -60 c17 -17 17 -339 0 -356 -18 -18 -56 -14
-68 7 -5 11 -10 85 -10 168 0 118 3 153 16 171 17 24 43 29 62 10z m854 -5
c16 -14 18 -34 18 -170 0 -87 -5 -163 -10 -174 -12 -21 -50 -25 -68 -7 -15 15
-17 320 -2 349 13 23 37 24 62 2z m-284 -176 l3 -47 -173 2 -173 3 0 40 c-1
22 1 43 3 48 2 4 79 6 170 5 l167 -3 3 -48z"/>
<path d="M1360 1100 c0 -207 4 -320 10 -320 6 0 10 113 10 320 0 207 -4 320
-10 320 -6 0 -10 -113 -10 -320z"/>
<path d="M1540 1290 l0 -130 24 0 c21 0 24 4 21 34 -5 53 4 78 26 71 15 -5 19
-1 19 19 0 19 -5 26 -19 26 -26 0 -33 13 -25 45 6 24 11 26 45 23 35 -3 39 -1
39 19 0 22 -4 23 -65 23 l-65 0 0 -130z"/>
<path d="M1700 1291 c0 -119 1 -129 19 -134 11 -3 22 -2 25 1 3 3 6 63 6 134
l0 128 -25 0 -25 0 0 -129z"/>
<path d="M1770 1397 c0 -18 5 -23 23 -23 21 1 22 -2 25 -106 2 -87 6 -108 17
-108 8 0 18 -1 23 -2 4 -2 9 47 12 107 5 106 6 110 28 109 17 0 22 5 22 23 0
22 -3 23 -75 23 -72 0 -75 -1 -75 -23z"/>
<path d="M1520 910 l0 -130 64 0 c49 0 65 4 70 16 11 28 6 36 -21 34 -66 -5
-63 -9 -63 105 l0 105 -25 0 -25 0 0 -130z"/>
<path d="M1687 1033 c-13 -12 -8 -228 5 -241 7 -7 33 -12 58 -12 25 0 51 5 58
12 13 13 17 202 6 232 -5 12 -20 16 -63 16 -32 0 -61 -3 -64 -7z m83 -118 c0
-78 -2 -85 -20 -85 -18 0 -20 7 -20 85 0 78 2 85 20 85 18 0 20 -7 20 -85z"/>
<path d="M1856 1025 c-11 -31 -7 -220 6 -233 7 -7 33 -12 58 -12 25 0 51 5 58
12 7 7 12 38 12 70 l0 58 -36 0 c-33 0 -36 -2 -29 -22 18 -61 18 -68 -4 -68
-20 0 -21 5 -21 85 0 78 2 85 20 85 13 0 20 -7 20 -20 0 -15 7 -20 26 -20 23
0 25 3 22 38 l-3 37 -61 3 c-49 2 -63 0 -68 -13z"/>
</g>
</svg>
